<svg width="210" height="209" viewBox="0 0 210 209" fill="none" xmlns="http://www.w3.org/2000/svg">
<path d="M68 109.744V96.2444C68 96.2444 22 85.7444 22 125.744C22 166.744 68 171.744 68 171.744V159.244C68 159.244 35 154.744 35 125.744C35 99.2444 68 109.744 68 109.744Z" fill="#D15241"/>
<path d="M181 69H61V179C61 195.569 74.4315 209 91 209H151C167.569 209 181 195.569 181 179V69Z" fill="#D15241"/>
<line y1="-3" x2="87" y2="-3" transform="matrix(0 1 1 0 138 69)" stroke="white" stroke-width="6"/>
<path d="M153 137C153 134.791 151.209 133 149 133L121 133C118.791 133 117 134.791 117 137L117 171C117 173.209 118.791 175 121 175L149 175C151.209 175 153 173.209 153 171L153 137Z" fill="#FCD462"/>
<path d="M115.473 27.4419C120.452 20.5814 121.916 6.86047 109.031 0C138.27 6.51744 137.279 26.7558 128.854 34.3023C121.206 41.1529 114.482 46.3081 119.438 59C102.588 43.564 107.111 38.9646 115.473 27.4419Z" fill="#FCD462"/>
<path d="M81.4733 27.4419C86.452 20.5814 87.916 6.86047 75.0307 0C104.27 6.51744 103.279 26.7558 94.8542 34.3023C87.2062 41.1529 80.4822 46.3081 85.438 59C68.588 43.564 73.1113 38.9646 81.4733 27.4419Z" fill="#FCD462"/>
<path d="M149.473 27.4419C154.452 20.5814 155.916 6.86047 143.031 0C172.27 6.51744 171.279 26.7558 162.854 34.3023C155.206 41.1529 148.482 46.3081 153.438 59C136.588 43.564 141.111 38.9646 149.473 27.4419Z" fill="#FCD462"/>
</svg>
