<svg width="456" height="257" viewBox="0 0 456 257" fill="none" xmlns="http://www.w3.org/2000/svg">
<path d="M238.05 187.5C225.85 187.5 216.3 184.05 209.4 177.15C202.6 170.15 199.2 160.35 199.2 147.75C199.2 140.65 200.5 134.1 203.1 128.1C205.7 122.1 209.7 117.25 215.1 113.55C220.5 109.85 227.15 108 235.05 108C242.45 108 248.85 109.75 254.25 113.25C259.65 116.65 263.75 121.25 266.55 127.05C269.35 132.75 270.75 139 270.75 145.8C270.75 147.7 270.1 149.3 268.8 150.6C267.6 151.9 265.95 152.55 263.85 152.55H213C213.8 159.55 216.4 165 220.8 168.9C225.2 172.8 231.35 174.75 239.25 174.75C243.45 174.75 247.1 174.35 250.2 173.55C253.4 172.75 256.5 171.6 259.5 170.1C260.3 169.7 261.2 169.5 262.2 169.5C263.8 169.5 265.2 170.05 266.4 171.15C267.6 172.25 268.2 173.65 268.2 175.35C268.2 177.55 266.9 179.4 264.3 180.9C260.4 183.1 256.55 184.75 252.75 185.85C248.95 186.95 244.05 187.5 238.05 187.5ZM257.25 141.45C256.95 136.55 255.65 132.45 253.35 129.15C251.15 125.85 248.4 123.45 245.1 121.95C241.8 120.35 238.45 119.55 235.05 119.55C231.65 119.55 228.3 120.35 225 121.95C221.7 123.45 218.95 125.85 216.75 129.15C214.55 132.45 213.3 136.55 213 141.45H257.25ZM308.311 187.5C303.911 187.5 299.811 186.6 296.011 184.8C292.311 183 289.361 180.4 287.161 177C284.961 173.5 283.861 169.5 283.861 165C283.861 157.6 286.761 151.7 292.561 147.3C298.461 142.9 307.061 140.7 318.361 140.7H336.511V139.5C336.511 132.9 334.861 128.15 331.561 125.25C328.361 122.35 323.311 120.9 316.411 120.9C312.611 120.9 309.211 121.2 306.211 121.8C303.311 122.4 300.061 123.3 296.461 124.5C295.661 124.7 295.011 124.8 294.511 124.8C293.011 124.8 291.711 124.25 290.611 123.15C289.511 122.05 288.961 120.7 288.961 119.1C288.961 116.4 290.261 114.5 292.861 113.4C301.361 109.8 310.011 108 318.811 108C325.711 108 331.511 109.4 336.211 112.2C341.011 115 344.511 118.65 346.711 123.15C349.011 127.55 350.161 132.35 350.161 137.55V180C350.161 181.9 349.461 183.5 348.061 184.8C346.761 186.1 345.161 186.75 343.261 186.75C341.361 186.75 339.761 186.1 338.461 184.8C337.161 183.5 336.511 181.9 336.511 180V176.1C329.111 183.7 319.711 187.5 308.311 187.5ZM313.411 175.5C317.811 175.5 322.061 174.45 326.161 172.35C330.261 170.15 333.711 167.45 336.511 164.25V151.65H320.161C305.061 151.65 297.511 155.6 297.511 163.5C297.511 167.1 298.711 170 301.111 172.2C303.611 174.4 307.711 175.5 313.411 175.5ZM379.789 186.75C377.889 186.75 376.289 186.1 374.989 184.8C373.689 183.5 373.039 181.9 373.039 180V115.65C373.039 113.75 373.689 112.15 374.989 110.85C376.289 109.45 377.889 108.75 379.789 108.75C381.689 108.75 383.289 109.45 384.589 110.85C385.989 112.15 386.689 113.75 386.689 115.65V122.1C393.689 112.7 401.539 108 410.239 108H410.989C412.889 108 414.439 108.65 415.639 109.95C416.939 111.25 417.589 112.85 417.589 114.75C417.589 116.65 416.939 118.2 415.639 119.4C414.339 120.6 412.689 121.2 410.689 121.2H409.939C405.139 121.2 400.739 122.4 396.739 124.8C392.739 127.1 389.389 130.3 386.689 134.4V180C386.689 181.9 385.989 183.5 384.589 184.8C383.289 186.1 381.689 186.75 379.789 186.75ZM437.211 186.75C435.311 186.75 433.711 186.1 432.411 184.8C431.111 183.5 430.461 181.9 430.461 180V82.65C430.461 80.75 431.111 79.15 432.411 77.85C433.711 76.45 435.311 75.75 437.211 75.75C439.211 75.75 440.861 76.4 442.161 77.7C443.461 79 444.111 80.65 444.111 82.65V180C444.111 181.9 443.411 183.5 442.011 184.8C440.711 186.1 439.111 186.75 437.211 186.75Z" fill="black"/>
<path d="M46 109.744V96.2444C46 96.2444 0 85.7444 0 125.744C0 166.744 46 171.744 46 171.744V159.244C46 159.244 13 154.744 13 125.744C13 99.2444 46 109.744 46 109.744Z" fill="#D15241"/>
<path d="M159 69H39V179C39 195.569 52.4315 209 69 209H129C145.569 209 159 195.569 159 179V69Z" fill="#D15241"/>
<line y1="-3" x2="87" y2="-3" transform="matrix(0 1 1 0 116 69)" stroke="white" stroke-width="6"/>
<path d="M131 137C131 134.791 129.209 133 127 133L99 133C96.7909 133 95 134.791 95 137L95 171C95 173.209 96.7909 175 99 175L127 175C129.209 175 131 173.209 131 171L131 137Z" fill="#FCD462"/>
<path d="M93.4733 27.4419C98.452 20.5814 99.916 6.86047 87.0307 0C116.27 6.51744 115.279 26.7558 106.854 34.3023C99.2062 41.1529 92.4822 46.3081 97.438 59C80.588 43.564 85.1113 38.9646 93.4733 27.4419Z" fill="#FCD462"/>
<path d="M59.4733 27.4419C64.452 20.5814 65.916 6.86047 53.0307 0C82.2704 6.51744 81.2792 26.7558 72.8542 34.3023C65.2062 41.1529 58.4822 46.3081 63.438 59C46.588 43.564 51.1113 38.9646 59.4733 27.4419Z" fill="#FCD462"/>
<path d="M127.473 27.4419C132.452 20.5814 133.916 6.86047 121.031 0C150.27 6.51744 149.279 26.7558 140.854 34.3023C133.206 41.1529 126.482 46.3081 131.438 59C114.588 43.564 119.111 38.9646 127.473 27.4419Z" fill="#FCD462"/>
</svg>
