<svg width="159" height="245" viewBox="0 0 159 245" fill="none" xmlns="http://www.w3.org/2000/svg">
<path d="M46 109.744V96.2444C46 96.2444 0 85.7444 0 125.744C0 166.744 46 171.744 46 171.744V159.244C46 159.244 13 154.744 13 125.744C13 99.2444 46 109.744 46 109.744Z" fill="#D15241"/>
<path d="M159 69H39V179C39 195.569 52.4315 209 69 209H129C145.569 209 159 195.569 159 179V69Z" fill="#D15241"/>
<line y1="-3" x2="87" y2="-3" transform="matrix(0 1 1 0 116 69)" stroke="white" stroke-width="6"/>
<path d="M131 137C131 134.791 129.209 133 127 133L99 133C96.7909 133 95 134.791 95 137L95 171C95 173.209 96.7909 175 99 175L127 175C129.209 175 131 173.209 131 171L131 137Z" fill="#FCD462"/>
<path d="M93.4733 27.4419C98.452 20.5814 99.916 6.86047 87.0307 0C116.27 6.51744 115.279 26.7558 106.854 34.3023C99.2062 41.1529 92.4822 46.3081 97.438 59C80.588 43.564 85.1113 38.9646 93.4733 27.4419Z" fill="#FCD462"/>
<path d="M59.4733 27.4419C64.452 20.5814 65.916 6.86047 53.0307 0C82.2704 6.51744 81.2792 26.7558 72.8542 34.3023C65.2062 41.1529 58.4822 46.3081 63.438 59C46.588 43.564 51.1113 38.9646 59.4733 27.4419Z" fill="#FCD462"/>
<path d="M127.473 27.4419C132.452 20.5814 133.916 6.86047 121.031 0C150.27 6.51744 149.279 26.7558 140.854 34.3023C133.206 41.1529 126.482 46.3081 131.438 59C114.588 43.564 119.111 38.9646 127.473 27.4419Z" fill="#FCD462"/>
</svg>
